<svg width="32" height="32" viewBox="0 0 32 32" fill="none" xmlns="http://www.w3.org/2000/svg">
<path d="M31 16C31 24.2843 24.2843 31 16 31C14.0048 31 12.1005 30.6104 10.3592 29.9032C10.0259 29.7679 9.85924 29.7002 9.72453 29.67C9.59277 29.6405 9.49526 29.6297 9.36022 29.6297C9.22217 29.6296 9.07181 29.6547 8.77108 29.7048L2.84127 30.6931C2.2203 30.7966 1.90982 30.8484 1.68531 30.7521C1.4888 30.6678 1.33222 30.5112 1.24793 30.3147C1.15164 30.0902 1.20338 29.7797 1.30688 29.1587L2.29518 23.2289C2.3453 22.9282 2.37036 22.7778 2.37034 22.6398C2.37033 22.5047 2.35953 22.4072 2.32999 22.2755C2.2998 22.1408 2.23212 21.9741 2.09677 21.6409C1.38956 19.8995 1 17.9952 1 16C1 7.71573 7.71573 1 16 1C24.2843 1 31 7.71573 31 16Z" fill="#1E1A34"/>
<path d="M9.33333 11.8333H16M9.33333 17.6667H21M16 31C24.2843 31 31 24.2843 31 16C31 7.71573 24.2843 1 16 1C7.71573 1 1 7.71573 1 16C1 17.9952 1.38956 19.8995 2.09677 21.6408C2.23212 21.9741 2.2998 22.1408 2.32999 22.2755C2.35953 22.4072 2.37033 22.5047 2.37034 22.6398C2.37036 22.7778 2.3453 22.9282 2.29518 23.2289L1.30688 29.1587C1.20338 29.7797 1.15164 30.0902 1.24793 30.3147C1.33222 30.5112 1.4888 30.6678 1.68531 30.7521C1.90982 30.8484 2.2203 30.7966 2.84127 30.6931L8.77108 29.7048C9.07181 29.6547 9.22217 29.6296 9.36022 29.6297C9.49526 29.6297 9.59277 29.6405 9.72453 29.67C9.85924 29.7002 10.0259 29.7679 10.3592 29.9032C12.1005 30.6104 14.0048 31 16 31Z" stroke="#BEDE18" stroke-width="2" stroke-linecap="round" stroke-linejoin="round"/>
</svg>
