<svg width="80" height="80" viewBox="0 0 80 80" fill="none" xmlns="http://www.w3.org/2000/svg">
<rect width="80" height="80" rx="40" fill="#F2F8D1"/>
<g clip-path="url(#clip0_14_5724)">
<g clip-path="url(#clip1_14_5724)">
<rect x="33.2798" y="32.32" width="23.5316" height="20.6342" rx="10.3171" transform="rotate(-45 33.2798 32.32)" fill="white"/>
<path d="M35.9999 42C36.8588 43.1482 37.9546 44.0984 39.213 44.7859C40.4714 45.4734 41.8629 45.8822 43.2932 45.9847C44.7235 46.0871 46.1591 45.8807 47.5026 45.3796C48.8461 44.8784 50.0661 44.0941 51.0799 43.08L57.0799 37.08C58.9015 35.194 59.9094 32.6679 59.8867 30.046C59.8639 27.424 58.8122 24.9159 56.9581 23.0618C55.104 21.2077 52.5959 20.156 49.9739 20.1333C47.352 20.1105 44.8259 21.1184 42.9399 22.94L39.4999 26.36M43.9999 38C43.141 36.8517 42.0452 35.9016 40.7868 35.2141C39.5284 34.5266 38.1369 34.1178 36.7066 34.0153C35.2763 33.9129 33.8407 34.1193 32.4972 34.6204C31.1537 35.1216 29.9337 35.9058 28.9199 36.92L22.9199 42.92C21.0983 44.806 20.0904 47.332 20.1132 49.954C20.136 52.576 21.1876 55.0841 23.0417 56.9382C24.8958 58.7923 27.4039 59.8439 30.0259 59.8667C32.6479 59.8895 35.1739 58.8816 37.0599 57.06L40.4799 53.64" stroke="#1E1A34" stroke-width="1.5" stroke-linecap="round" stroke-linejoin="round"/>
</g>
</g>
<defs>
<clipPath id="clip0_14_5724">
<rect width="48" height="48" fill="white" transform="translate(16 16)"/>
</clipPath>
<clipPath id="clip1_14_5724">
<rect width="48" height="48" fill="white" transform="translate(16 16)"/>
</clipPath>
</defs>
</svg>
