<svg width="28" height="18" viewBox="0 0 28 18" fill="none" xmlns="http://www.w3.org/2000/svg">
<path d="M27.7549 8.41724L19.3828 0.241474C19.0531 -0.0804913 18.519 -0.0804913 18.1893 0.241474L14.0044 4.33043L9.81945 0.241474C9.48976 -0.0804913 8.95125 -0.0804913 8.62156 0.241474L0.247272 8.41724C-0.0824241 8.73921 -0.0824241 9.26079 0.247272 9.58276L8.61936 17.7585C8.94905 18.0805 9.48756 18.0805 9.81725 17.7585L14.0022 13.6717L18.1871 17.7585C18.5168 18.0805 19.0509 18.0805 19.3806 17.7585L27.7527 9.58276C28.0824 9.26079 28.0824 8.73921 27.7527 8.41724H27.7549ZM18.1893 9.58276L14.4066 13.2768C14.1846 13.4936 13.822 13.4936 13.6 13.2768L9.81725 9.58276C9.48756 9.26079 9.48756 8.73921 9.81725 8.41724L13.6 4.72323C13.822 4.50644 14.1846 4.50644 14.4066 4.72323L18.1893 8.41724C18.519 8.73921 18.519 9.26079 18.1893 9.58276Z" fill="#1F1B34"/>
</svg>
