<svg width="164" height="24" viewBox="0 0 164 24" fill="none" xmlns="http://www.w3.org/2000/svg">
<path d="M36.4072 11.223L25.4252 0.321965C24.9927 -0.107322 24.2921 -0.107322 23.8596 0.321965L18.3701 5.77391L12.8805 0.321965C12.4481 -0.107322 11.7417 -0.107322 11.3092 0.321965L0.324356 11.223C-0.108119 11.6523 -0.108119 12.3477 0.324356 12.777L11.3063 23.678C11.7388 24.1073 12.4452 24.1073 12.8777 23.678L18.3672 18.229L23.8567 23.678C24.2892 24.1073 24.9898 24.1073 25.4223 23.678L36.4043 12.777C36.8367 12.3477 36.8367 11.6523 36.4043 11.223H36.4072ZM23.8596 12.777L18.8977 17.7024C18.6065 17.9914 18.1308 17.9914 17.8396 17.7024L12.8777 12.777C12.4452 12.3477 12.4452 11.6523 12.8777 11.223L17.8396 6.29764C18.1308 6.00858 18.6065 6.00858 18.8977 6.29764L23.8596 11.223C24.2921 11.6523 24.2921 12.3477 23.8596 12.777Z" fill="#1E1A34"/>
<path d="M46.3438 2.6673H50.0717L56.5098 17.8927L62.9479 2.6673H66.7018V21.3327H64.0954V6.02719L57.5794 21.3327H55.3133L48.7714 6.02719V21.3327H46.3466V2.6673H46.3438Z" fill="#1E1A34"/>
<path d="M68.8958 12C68.8958 6.63964 72.6496 2.40115 78.7735 2.40115C84.8973 2.40115 88.6252 6.63964 88.6252 12C88.6252 17.3604 84.8973 21.5989 78.7735 21.5989C72.6496 21.5989 68.8958 17.3575 68.8958 12ZM78.7735 19.2263C83.2049 19.2263 85.941 16.0267 85.941 12C85.941 7.97329 83.2049 4.74791 78.7735 4.74791C74.3421 4.74791 71.6059 7.97615 71.6059 12C71.6059 16.0238 74.3161 19.2263 78.7735 19.2263Z" fill="#1E1A34"/>
<path d="M90.8049 2.6673H93.8813L104.906 17.5206V2.6673H107.513V21.3327H104.595L93.4142 6.18746V21.3327H90.8078V2.6673H90.8049Z" fill="#1E1A34"/>
<path d="M111.016 2.6673H113.622V21.3327H111.016V2.6673Z" fill="#1E1A34"/>
<path d="M121.9 5.06559H115.488V2.6673H130.89V5.06845H124.503V21.3356H121.897V5.06559H121.9Z" fill="#1E1A34"/>
<path d="M132.573 2.6673H145.839V5.09421H135.18V12.1088H144.536V14.4011H135.18V21.3327H132.573V2.6673Z" fill="#1E1A34"/>
<path d="M154.203 15.7319L146.983 2.66444H150.086L155.61 13.0103L161.108 2.66444H164L156.806 15.6232V21.3298H154.2V15.7291L154.203 15.7319Z" fill="#1E1A34"/>
</svg>
