<svg width="590" height="634" viewBox="0 0 590 634" fill="none" xmlns="http://www.w3.org/2000/svg">
<g clip-path="url(#clip0_14_5126)">
<path d="M284.103 416.731L362.736 301.524L362.636 301.481C303.886 273.912 221.347 224.53 221.347 224.53L217.313 191.746L182.621 183.311L149.782 175.318L143.611 187.5C143.611 187.5 133.192 204.64 106.282 196.761C78.5032 188.625 -4.29234 163.093 -39.0981 279.526C-44.1437 296.381 -50.1869 315.672 -56.8431 336.331L19.9948 369.329L34.5471 446.452H176.279L170.007 511.963L257.549 523.888C269.279 485.377 278.287 449.458 284.16 416.489L284.117 416.731H284.103Z" fill="#BEDE18"/>
<path d="M102.505 446.452L65.4475 188.796C57.0097 188.483 48.743 188.811 40.7328 190.421L76.6076 446.452H-32.8126L-22.3936 555.205C-22.3936 563.896 -15.3526 570.934 -6.65833 570.934H150.124C158.819 570.934 165.86 563.896 165.86 555.205L176.279 446.452H102.52H102.505Z" fill="#1E1A34"/>
<path d="M-107.042 646.148L-161.503 667.234L-161.66 667.277C-168.458 669.571 -173.176 676.396 -172.235 684.161C-171.366 691.313 -165.494 697.069 -158.31 697.824C-156.699 697.995 -155.117 697.91 -153.621 697.625L-153.036 697.496C-153.036 697.496 -55.0187 659.156 -50.5148 657.517C-29.3776 649.852 -19.2722 642.743 -11.2193 613.563L-0.0877075 570.92H-6.64409C-15.3384 570.92 -22.3794 563.881 -22.3794 555.19L-32.7983 446.438H34.5328L19.9805 369.315L-56.8573 336.317C-96.11 458.491 -156.642 628.082 -156.642 628.082L-243.814 657.888H-243.871C-250.185 659.939 -254.76 665.867 -254.76 672.876C-254.76 681.568 -247.719 688.606 -239.025 688.606C-237.457 688.606 -235.946 688.378 -234.521 687.951L-165.736 669.371" fill="#EEEEED"/>
<path d="M53.5035 570.934C57.5514 670.597 13.3101 759.018 -49.0182 832.921L24.6555 923.209C79.6862 884.227 126.621 839.917 157.921 779.193L217.94 898.646L332.819 845.943L257.549 523.888L170.007 511.963L165.86 555.19C165.86 563.881 158.819 570.92 150.124 570.92H53.5035" fill="#1E1A34"/>
<path d="M547.241 159.318L542.438 180.005C541.483 184.536 537.464 187.941 532.646 187.941H466.284C460.754 187.941 456.279 183.468 456.279 177.94C456.279 177.398 456.321 176.885 456.407 176.372L456.435 176.23L460.341 159.247H507.233C515.927 159.247 522.968 152.208 522.968 143.517C522.968 134.826 515.927 127.788 507.233 127.788L457.576 125.123H456.906C446.059 125.109 437.265 133.9 437.265 144.742C437.265 147.449 437.807 150.028 438.804 152.379C438.804 152.379 466.655 228.462 466.655 272.231C466.655 316 438.776 331.9 389.76 313.193C381.864 310.173 372.827 306.24 363.121 301.695L362.75 301.524L285.286 415.021C285.286 415.021 384.7 460.571 452.06 463.563C519.419 466.555 589.772 428.4 583.786 333.767C577.799 239.133 547.227 159.503 547.227 159.503L547.27 159.318H547.241Z" fill="#EEEEED"/>
<path d="M574.55 77.2368C582.39 77.2368 588.746 70.8834 588.746 63.0461C588.746 55.2088 582.39 48.8554 574.55 48.8554C566.71 48.8554 560.354 55.2088 560.354 63.0461C560.354 70.8834 566.71 77.2368 574.55 77.2368Z" fill="#EEEEED"/>
<path d="M568.179 105.618C576.019 105.618 582.375 99.2648 582.375 91.4275C582.375 83.5902 576.019 77.2368 568.179 77.2368C560.338 77.2368 553.983 83.5902 553.983 91.4275C553.983 99.2648 560.338 105.618 568.179 105.618Z" fill="#EEEEED"/>
<path d="M563.461 134C571.301 134 577.657 127.646 577.657 119.809C577.657 111.972 571.301 105.618 563.461 105.618C555.621 105.618 549.265 111.972 549.265 119.809C549.265 127.646 555.621 134 563.461 134Z" fill="#EEEEED"/>
<path d="M557.261 161.768C565.101 161.768 571.457 155.415 571.457 147.578C571.457 139.74 565.101 133.387 557.261 133.387C549.421 133.387 543.065 139.74 543.065 147.578C543.065 155.415 549.421 161.768 557.261 161.768Z" fill="#EEEEED"/>
<path d="M547.441 157.822C544.747 155.243 543.065 151.61 543.065 147.578C543.065 139.742 549.422 133.387 557.261 133.387C558.13 133.387 558.986 133.458 559.812 133.615L559.869 133.544C553.769 131.962 549.265 126.406 549.265 119.809C549.265 111.973 555.622 105.618 563.461 105.618C564.045 105.618 564.616 105.647 565.186 105.718L565.414 105.348C558.9 104.065 553.983 98.3234 553.983 91.4275C553.983 83.5913 560.34 77.2368 568.179 77.2368L569.362 76.2537C564.088 74.1878 560.368 69.0444 560.368 63.0461C560.368 55.7798 565.827 49.7957 572.868 48.9551L573.182 47.6158C573.21 47.3309 573.224 47.0459 573.224 46.761C573.224 41.2329 568.749 36.7591 563.219 36.7591H496.344C491.042 36.7591 486.709 40.8767 486.352 46.0771L468.052 125.693L507.233 127.802C515.927 127.802 522.968 134.84 522.968 143.531C522.968 152.223 515.927 159.261 507.233 159.261H460.341L456.435 176.244L456.407 176.387C456.321 176.9 456.279 177.427 456.279 177.954C456.279 183.482 460.754 187.956 466.284 187.956H532.646C537.464 187.956 541.483 184.551 542.438 180.02L547.555 157.95" fill="#1E1A34"/>
<path d="M478.171 125.95L496.429 48.7272H555.722L527.829 169.79H468.536L470.859 159.232H471.201H507.204C515.899 159.232 522.94 152.194 522.94 143.503C522.94 134.812 515.899 127.773 507.204 127.773L478.684 126.235L478.171 125.921V125.95Z" fill="#EEEEED"/>
<path d="M214.605 169.704L217.313 191.76L182.621 183.325L149.839 175.204L165.888 143.531L164.178 130.153C166.131 138.359 155.498 142.406 150.167 137.376C144.837 132.347 144.024 130.196 137.753 126.448C131.482 122.701 124.911 111.089 133.206 102.925C141.003 95.2602 154.016 101.543 154.016 101.543L162.097 101.13C162.097 101.13 163.779 66.6508 192.071 57.7887C216.344 50.1947 232.692 64.0434 232.692 64.0434C232.692 64.0434 239.89 69.1584 245.705 83.577C251.52 97.9957 261.754 124.226 261.754 124.226L248.997 126.235C248.997 126.235 249.781 155.97 236.968 165.33C230.526 170.046 222.344 170.531 214.092 168.736L214.619 169.704H214.605Z" fill="#EEEEED"/>
<path d="M322.357 360.681L332.919 434.327L285.271 415.036L322.357 360.681Z" fill="#1E1A34"/>
<path d="M179.771 149.658L217.299 191.76L215.033 168.949C202.262 167.297 190.845 159.247 179.771 149.672V149.658Z" fill="#1E1A34"/>
<path d="M-56.8431 336.859L24.6555 394.077L19.9948 369.329L-56.8431 336.859Z" fill="#1E1A34"/>
<path d="M75.1253 435.738L99.5264 422.701L102.377 446.452H76.6219L75.1253 435.738Z" fill="#1E1A34"/>
<path d="M222.387 171.001C211.027 171.001 198.371 165.273 188.379 158.264C171.846 146.68 170.022 137.904 169.965 137.533L172.43 137.063L171.19 137.291L172.416 137.049C172.43 137.134 174.269 145.312 189.819 156.198C203.359 165.687 223.641 173.494 236.227 164.305C248.37 155.428 247.757 126.548 247.743 126.249L247.715 125.152L260.015 123.214C257.777 117.501 249.496 96.343 244.536 84.033C238.949 70.1842 232.022 65.0978 231.951 65.0408C231.709 64.8413 215.731 51.6764 192.442 58.957C165.332 67.4344 163.365 100.817 163.351 101.159L163.294 102.284L153.759 102.783L153.474 102.64C153.346 102.583 141.159 96.8417 134.09 103.78C131.368 106.459 130.213 109.665 130.655 113.341C131.282 118.541 135.031 123.314 138.408 125.337C142.87 128.001 144.651 129.882 147.117 132.475C148.186 133.601 149.398 134.883 151.037 136.422C153.631 138.858 157.536 138.673 160.045 137.205C161.242 136.507 163.936 134.456 162.966 130.395L165.404 129.811C166.344 133.772 164.805 137.348 161.299 139.371C157.422 141.608 152.376 141.138 149.312 138.231C147.63 136.635 146.39 135.339 145.293 134.185C142.884 131.649 141.288 129.968 137.111 127.474C133.32 125.209 128.902 119.909 128.161 113.625C127.633 109.209 129.073 105.191 132.337 101.985C140.076 94.3768 152.163 99.2923 154.272 100.233L160.942 99.8907C161.555 93.7642 165.845 64.6418 191.7 56.5491C216.344 48.8411 232.82 62.4619 233.504 63.0461C233.732 63.2028 240.987 68.4745 246.874 83.0784C252.632 97.3403 262.823 123.471 262.937 123.741L263.507 125.195L250.28 127.275C250.28 132.888 249.639 157.608 237.723 166.313C233.234 169.59 227.974 170.972 222.401 170.972L222.387 171.001Z" fill="#1E1A34"/>
<path d="M459.443 464.988C456.963 464.988 454.483 464.931 451.988 464.817C440.629 464.318 427.559 462.538 413.149 459.546L413.662 457.081C427.944 460.044 440.871 461.811 452.102 462.31C492.153 464.091 528.655 451.31 552.272 427.26C574.493 404.635 584.954 372.321 582.517 333.838C576.616 240.487 546.343 160.743 546.044 159.945L548.381 159.047C548.68 159.845 579.096 239.931 585.026 333.681C587.506 372.891 576.802 405.86 554.068 429.013C531.434 452.065 497.256 464.974 459.457 464.974L459.443 464.988Z" fill="#1E1A34"/>
<path d="M404.098 457.551C402.288 457.123 400.464 456.696 398.654 456.24L399.252 453.804C401.063 454.245 402.858 454.687 404.669 455.1L404.098 457.537V457.551Z" fill="#1E1A34"/>
<path d="M390.886 454.245C336.753 439.884 283.846 415.762 283.319 415.52L284.359 413.24C284.886 413.483 337.594 437.504 391.513 451.823L390.872 454.245H390.886Z" fill="#1E1A34"/>
<path d="M258.433 525.27L169.836 513.202L170.178 510.709L256.665 522.492C278.416 450.883 289.918 390.188 290.816 342.059L293.324 342.102C292.412 390.686 280.767 451.966 258.746 524.244L258.433 525.27Z" fill="#1E1A34"/>
<path d="M66.5613 187.765L64.0782 188.122L101.113 445.666L103.596 445.309L66.5613 187.765Z" fill="#1E1A34"/>
<path d="M150.124 572.188H57.4801V569.68H150.124C158.106 569.68 164.606 563.183 164.606 555.205L168.568 513.744L171.062 513.986L167.1 555.333C167.1 564.58 159.489 572.188 150.124 572.188Z" fill="#EEEEED"/>
<path d="M54.1164 572.188H-6.6441C-16.0083 572.188 -23.6336 564.565 -23.6336 555.205L-34.1808 445.198H177.661L171.233 512.29L168.739 512.048L174.896 447.706H-31.4158L-21.1251 555.076C-21.1251 563.169 -14.6258 569.666 -6.6441 569.666H54.1164V572.174V572.188Z" fill="#1E1A34"/>
<path d="M41.9334 189.984L39.4491 190.332L75.2112 445.668L77.6955 445.32L41.9334 189.984Z" fill="#1E1A34"/>
<path d="M33.307 446.694L18.883 370.227L-85.1068 325.574L-84.109 323.266L21.1065 368.446L35.7728 446.224L33.307 446.694Z" fill="#1E1A34"/>
<path d="M-239.01 689.874C-248.375 689.874 -256 682.251 -256 672.891C-256 665.496 -251.268 658.999 -244.241 656.734L-157.612 627.113C-153.022 614.204 -73.8754 391.441 -40.3239 279.17C-25.4723 229.488 -0.116211 199.625 35.0459 190.435C63.6374 182.955 91.0601 191.005 105.783 195.322L106.61 195.564C132.294 203.087 142.414 187.015 142.513 186.859L164.762 142.961L167 144.101L144.708 188.084C144.552 188.34 133.434 206.036 105.912 197.986L105.085 197.744C90.5898 193.498 63.6089 185.576 35.6873 192.885C1.43735 201.847 -23.3343 231.126 -37.9151 279.91C-72.3218 395.046 -154.619 626.229 -155.459 628.552L-155.659 629.122L-243.4 659.127C-249.472 661.079 -253.491 666.622 -253.491 672.919C-253.491 680.898 -246.992 687.395 -239.01 687.395C-237.599 687.395 -236.203 687.195 -234.863 686.796L-166.049 668.203L-165.394 670.625L-234.179 689.204C-235.718 689.66 -237.357 689.902 -239.01 689.902V689.874Z" fill="#1E1A34"/>
<path d="M-156.642 699.178C-157.241 699.178 -157.854 699.149 -158.453 699.078C-166.22 698.266 -172.549 692.068 -173.489 684.332C-174.459 676.339 -169.67 668.673 -162.073 666.109L-161.888 666.052L-107.498 644.994L-106.586 647.33L-161.289 668.502C-167.831 670.711 -171.836 677.108 -170.981 684.032C-170.183 690.629 -164.795 695.901 -158.182 696.599C-156.728 696.756 -155.274 696.684 -153.863 696.414L-153.407 696.314C-148.262 694.305 -55.3893 657.973 -50.9423 656.349C-30.8314 649.054 -20.4837 642.429 -12.4308 613.235L-1.29919 570.606L1.12379 571.247L-10.0078 613.891C-18.3743 644.224 -29.1495 651.106 -50.0872 658.7C-54.5341 660.31 -151.597 698.294 -152.58 698.665L-152.766 698.722L-153.35 698.85C-154.433 699.064 -155.531 699.163 -156.628 699.163L-156.642 699.178Z" fill="#1E1A34"/>
<path d="M258.767 523.591L256.324 524.162L362.706 979.343L365.149 978.773L258.767 523.591Z" fill="#1E1A34"/>
<path d="M58.6363 578.239L56.394 579.364L154.601 775.065L156.844 773.941L58.6363 578.239Z" fill="#EEEEED"/>
<path d="M120.688 584.437L118.408 585.483L151.794 658.144L154.074 657.097L120.688 584.437Z" fill="#EEEEED"/>
<path d="M59.7606 1083.27H-97.236L-97.6066 1082.81L-195.068 964.157L-168.971 944.01C-64.3971 863.625 58.8626 733.643 52.2635 570.991L54.772 570.891C61.4139 734.626 -62.4017 865.249 -167.432 946.005L-191.477 964.57L-96.0388 1080.77H57.2521C56.8387 1041.44 36.685 1017.31 0.396912 1012.81L-75.4717 1001.4L-83.6814 989.703L-69.8703 981.71C26.2518 924.705 109.674 870.079 156.781 778.637L159.018 779.791C111.599 871.817 27.8767 926.671 -68.6018 983.875L-80.0612 990.501L-74.0464 999.078L0.724731 1010.32C38.7802 1015.05 59.7463 1040.51 59.7463 1082.03V1083.28L59.7606 1083.27Z" fill="#1E1A34"/>
<path d="M229.768 475.111L222.199 519.002L224.671 519.428L232.24 475.537L229.768 475.111Z" fill="#1E1A34"/>
<path d="M185.87 474.488L181.449 513.577L183.942 513.859L188.363 474.77L185.87 474.488Z" fill="#1E1A34"/>
<path d="M160.829 178.021L155.565 199.938L158.005 200.523L163.268 178.606L160.829 178.021Z" fill="#1E1A34"/>
<path d="M178.759 204.725L176.307 204.141L181.695 181.801L245.719 197.373L245.121 199.81L183.533 184.835L178.759 204.725Z" fill="#1E1A34"/>
<path d="M201.764 187.641L196.5 209.558L198.939 210.143L204.203 188.226L201.764 187.641Z" fill="#1E1A34"/>
<path d="M158.049 158.99C136.698 175.446 84.4182 144.557 81.0117 111.759C76.3368 66.722 116.373 68.275 116.373 68.275C116.373 68.275 100.51 37.0868 134.332 11.6974C168.154 -13.692 190.646 10.2868 218.254 9.50322C275.223 7.86473 255.639 56.4922 255.639 56.4922C255.639 56.4922 264.134 57.2758 268.595 63.9722C282.064 84.2609 265.175 100.062 250.879 96.5425C247.985 95.8301 242.641 72.5921 240.246 73.4184C224.839 78.6473 212.652 67.5769 212.652 67.5769H192.442C192.442 67.5769 200.951 90.302 181.281 101.102C174.896 104.607 175.951 109.522 177.276 113.312C178.602 117.102 179.243 122.915 173.271 119.909C167.314 116.888 152.619 101.857 152.619 101.857C152.619 101.857 148.3 98.9931 143.668 99.1356C139.036 99.278 132.265 100.788 130.042 107.713C127.819 114.637 131.339 120.308 133.306 122.431C135.273 124.553 138.009 126.691 141.045 128.614C144.081 130.537 147.231 133.928 148.471 135.709C149.711 137.49 152.932 140.055 155.954 139.571C158.961 139.086 157.764 139.428 159.831 138.217C161.897 137.006 168.582 141.081 167.171 144.116C165.774 147.136 158.049 158.99 158.049 158.99Z" fill="#1E1A34"/>
<path d="M217.726 109.266C219.45 109.266 220.848 107.869 220.848 106.145C220.848 104.422 219.45 103.025 217.726 103.025C216.002 103.025 214.605 104.422 214.605 106.145C214.605 107.869 216.002 109.266 217.726 109.266Z" fill="#1E1A34"/>
<path d="M157.778 128.6C156.396 128.6 154.742 127.745 152.833 126.049C150.438 123.927 152.319 121.69 153.545 120.222C154.571 119.011 155.626 117.743 155.484 116.318C155.355 115.05 154.301 113.611 152.348 112.03C146.818 107.584 137.682 109.793 137.582 109.807L136.969 107.371C137.397 107.271 147.402 104.82 153.916 110.064C156.453 112.101 157.778 114.067 157.978 116.062C158.22 118.527 156.695 120.35 155.455 121.818C153.916 123.656 154.058 123.784 154.486 124.155C156.937 126.334 157.878 126.064 157.892 126.064C157.892 126.064 157.821 126.092 157.721 126.206L159.617 127.845C159.489 128.001 158.976 128.514 157.978 128.571C157.907 128.571 157.835 128.571 157.764 128.571L157.778 128.6Z" fill="#1E1A34"/>
<path d="M217.661 126.473L216.8 128.829L247.62 140.079L248.481 137.723L217.661 126.473Z" fill="#1E1A34"/>
<path d="M507.304 213.231L504.81 212.932C505.936 203.5 504.781 195.365 501.361 188.739L503.598 187.6C507.233 194.681 508.487 203.301 507.304 213.231Z" fill="#1E1A34"/>
<path d="M370.9 287.418L340.628 331.779L342.7 333.192L372.972 288.831L370.9 287.418Z" fill="#1E1A34"/>
<path d="M330.815 346.141L284.254 414.372L286.327 415.785L332.888 347.554L330.815 346.141Z" fill="#1E1A34"/>
<path d="M425.535 322.141C415.045 322.141 402.844 319.548 389.275 314.376C334.031 293.303 221.817 226.296 220.691 225.627L220.164 225.313L213.351 169.861L215.845 169.562L222.501 223.789C230.939 228.818 337.081 291.779 390.173 312.039C415.629 321.756 435.925 322.183 448.853 313.279C459.813 305.727 465.372 291.921 465.372 272.245C465.372 229.203 437.878 153.576 437.593 152.821C436.524 150.299 435.982 147.578 435.982 144.757C435.982 133.23 445.361 123.87 456.877 123.87H457.576L507.276 126.562C516.569 126.562 524.194 134.185 524.194 143.546C524.194 152.906 516.569 160.529 507.204 160.529H461.31L457.618 176.6C457.547 177.042 457.519 177.498 457.519 177.954C457.519 182.784 461.452 186.702 466.27 186.702H532.632C536.751 186.702 540.357 183.781 541.198 179.763L546.429 157.195L548.88 157.765L543.649 180.305C542.566 185.462 537.934 189.21 532.632 189.21H466.27C460.056 189.21 454.996 184.152 454.996 177.954C454.996 177.355 455.039 176.771 455.138 176.187L455.167 176.03L459.3 158.007H507.19C515.172 158.007 521.671 151.51 521.671 143.531C521.671 135.553 515.172 129.056 507.19 129.056L456.834 126.363C446.715 126.363 438.477 134.612 438.477 144.742C438.477 147.222 438.961 149.629 439.916 151.881C440.215 152.707 467.866 228.733 467.866 272.217C467.866 292.776 461.937 307.28 450.264 315.316C443.679 319.847 435.341 322.126 425.521 322.126L425.535 322.141Z" fill="#1E1A34"/>
<path d="M469.249 125.964L466.797 125.408L485.07 45.8919C485.526 40.0645 490.443 35.5053 496.301 35.5053H563.176C569.39 35.5053 574.436 40.5632 574.436 46.761C574.436 47.0887 574.436 47.4164 574.393 47.7298L574.365 47.9008L573.88 49.9667L571.428 49.3968L571.884 47.4164C571.899 47.2026 571.913 46.9747 571.913 46.7467C571.913 41.9168 567.979 37.9986 563.162 37.9986H496.287C491.697 37.9986 487.863 41.5748 487.55 46.1483L487.521 46.3478L469.22 125.964H469.249Z" fill="#1E1A34"/>
<path d="M574.55 78.4906C566.027 78.4906 559.1 71.5662 559.1 63.0461C559.1 54.526 566.027 47.6016 574.55 47.6016C583.073 47.6016 590 54.526 590 63.0461C590 71.5662 583.073 78.4906 574.55 78.4906ZM574.55 50.1092C567.409 50.1092 561.608 55.908 561.608 63.0461C561.608 70.1842 567.409 75.983 574.55 75.983C581.691 75.983 587.492 70.1842 587.492 63.0461C587.492 55.908 581.691 50.1092 574.55 50.1092Z" fill="#1E1A34"/>
<path d="M568.179 106.872C559.656 106.872 552.729 99.9477 552.729 91.4275C552.729 82.9074 559.656 75.983 568.179 75.983C576.702 75.983 583.629 82.9074 583.629 91.4275C583.629 99.9477 576.702 106.872 568.179 106.872ZM568.179 78.4906C561.038 78.4906 555.237 84.2894 555.237 91.4275C555.237 98.5656 561.038 104.364 568.179 104.364C575.32 104.364 581.121 98.5656 581.121 91.4275C581.121 84.2894 575.32 78.4906 568.179 78.4906Z" fill="#1E1A34"/>
<path d="M563.461 135.253C554.938 135.253 548.011 128.329 548.011 119.809C548.011 111.289 554.938 104.364 563.461 104.364C571.984 104.364 578.911 111.289 578.911 119.809C578.911 128.329 571.984 135.253 563.461 135.253ZM563.461 106.872C556.32 106.872 550.519 112.671 550.519 119.809C550.519 126.947 556.32 132.746 563.461 132.746C570.602 132.746 576.403 126.947 576.403 119.809C576.403 112.671 570.602 106.872 563.461 106.872Z" fill="#1E1A34"/>
<path d="M557.261 163.022C548.738 163.022 541.811 156.098 541.811 147.578C541.811 139.058 548.738 132.133 557.261 132.133C565.784 132.133 572.711 139.058 572.711 147.578C572.711 156.098 565.784 163.022 557.261 163.022ZM557.261 134.641C550.12 134.641 544.319 140.44 544.319 147.578C544.319 154.716 550.12 160.515 557.261 160.515C564.402 160.515 570.203 154.716 570.203 147.578C570.203 140.44 564.402 134.641 557.261 134.641Z" fill="#1E1A34"/>
<path d="M528.841 171.058H466.983L469.634 158.976L472.085 159.517L470.104 168.55H526.845L554.168 49.981H497.427L479.397 126.249L476.96 125.665L495.446 47.4734H557.318L528.841 171.058Z" fill="#1E1A34"/>
<path d="M202.561 314.376L266.386 320.858L261.683 370.113L227.418 389.347L198.855 363.73L202.561 314.376Z" fill="#EEEEED"/>
<path d="M217.85 326.482L217.548 328.971L268.612 335.167L268.914 332.677L217.85 326.482Z" fill="#1E1A34"/>
<path d="M190.736 323.188L190.433 325.678L208.12 327.823L208.422 325.334L190.736 323.188Z" fill="#1E1A34"/>
</g>
<defs>
<clipPath id="clip0_14_5126">
<rect width="846" height="1146" fill="white" transform="translate(-256)"/>
</clipPath>
</defs>
</svg>
